<?xml version="1.0" encoding="utf-8" standalone="no"?>
<!DOCTYPE svg PUBLIC "-//W3C//DTD SVG 1.1//EN"
  "http://www.w3.org/Graphics/SVG/1.1/DTD/svg11.dtd">
<svg xmlns:xlink="http://www.w3.org/1999/xlink" width="192pt" height="192pt" viewBox="0 0 192 192" xmlns="http://www.w3.org/2000/svg" version="1.1">
 <metadata>
  <rdf:RDF xmlns:dc="http://purl.org/dc/elements/1.1/" xmlns:cc="http://creativecommons.org/ns#" xmlns:rdf="http://www.w3.org/1999/02/22-rdf-syntax-ns#">
   <cc:Work>
    <dc:type rdf:resource="http://purl.org/dc/dcmitype/StillImage"/>
    <dc:date>2025-10-03T16:46:05.409992</dc:date>
    <dc:format>image/svg+xml</dc:format>
    <dc:creator>
     <cc:Agent>
      <dc:title>Matplotlib v3.8.0, https://matplotlib.org/</dc:title>
     </cc:Agent>
    </dc:creator>
   </cc:Work>
  </rdf:RDF>
 </metadata>
 <defs>
  <style type="text/css">*{stroke-linejoin: round; stroke-linecap: butt}</style>
 </defs>
 <g id="figure_1">
  <g id="patch_1">
   <path d="M 0 192 
L 192 192 
L 192 0 
L 0 0 
L 0 192 
z
" style="fill: none; opacity: 0"/>
  </g>
  <g id="patch_2">
   <path d="M 0 192 
L 192 192 
L 192 0 
L 0 0 
L 0 192 
z
" style="fill: none; opacity: 0"/>
  </g>
  <g id="axes_1">
   <g id="line2d_1">
    <path d="M 75.556475 158.723566 
L 74.833852 87.65662 
" clip-path="url(#p2ba014d686)" style="fill: none; stroke-dasharray: 8.14,3.52; stroke-dashoffset: 0; stroke: #b8860b; stroke-opacity: 0.6; stroke-width: 2.2"/>
   </g>
   <g id="line2d_2">
    <path d="M 74.833852 87.65662 
L 32.728658 62.759153 
" clip-path="url(#p2ba014d686)" style="fill: none; stroke-dasharray: 8.14,3.52; stroke-dashoffset: 0; stroke: #b8860b; stroke-opacity: 0.6; stroke-width: 2.2"/>
   </g>
   <g id="patch_3">
    <path d="M 36.542225 130.209779 
Q 69.130243 120.55859 98.502232 111.859852 
" clip-path="url(#p2ba014d686)" style="fill: none; opacity: 0.35; stroke: #00ff00; stroke-width: 3; stroke-linecap: round"/>
    <path d="M 89.695693 110.296243 
L 98.502232 111.859852 
L 91.967422 117.966918 
" clip-path="url(#p2ba014d686)" style="fill: none; opacity: 0.35; stroke: #00ff00; stroke-width: 3; stroke-linecap: round"/>
   </g>
   <g id="Path3DCollection_1">
    <defs>
     <path id="mc2a00b4713" d="M 0 3.535534 
C 0.937635 3.535534 1.836992 3.163008 2.5 2.5 
C 3.163008 1.836992 3.535534 0.937635 3.535534 0 
C 3.535534 -0.937635 3.163008 -1.836992 2.5 -2.5 
C 1.836992 -3.163008 0.937635 -3.535534 0 -3.535534 
C -0.937635 -3.535534 -1.836992 -3.163008 -2.5 -2.5 
C -3.163008 -1.836992 -3.535534 -0.937635 -3.535534 0 
C -3.535534 0.937635 -3.163008 1.836992 -2.5 2.5 
C -1.836992 3.163008 -0.937635 3.535534 0 3.535534 
z
" style="stroke: #000000; stroke-opacity: 0.8"/>
    </defs>
    <g clip-path="url(#p2ba014d686)">
     <use xlink:href="#mc2a00b4713" x="34.625658" y="130.777385" style="fill-opacity: 0.8; stroke: #000000; stroke-opacity: 0.8"/>
    </g>
   </g>
   <g id="text_1">
    <!-- X -->
    <g style="fill: #ff0000; opacity: 0.35" transform="translate(79.992049 165.962988) scale(0.16 -0.16)">
     <defs>
      <path id="DejaVuSans-Bold-58" d="M 3188 2381 
L 4806 0 
L 3553 0 
L 2463 1594 
L 1381 0 
L 122 0 
L 1741 2381 
L 184 4666 
L 1441 4666 
L 2463 3163 
L 3481 4666 
L 4744 4666 
L 3188 2381 
z
" transform="scale(0.015625)"/>
     </defs>
     <use xlink:href="#DejaVuSans-Bold-58"/>
    </g>
   </g>
   <g id="text_2">
    <!-- Y -->
    <g style="fill: #00ff00; opacity: 0.35" transform="translate(103.124282 108.775503) scale(0.16 -0.16)">
     <defs>
      <path id="DejaVuSans-Bold-59" d="M -63 4666 
L 1253 4666 
L 2316 3003 
L 3378 4666 
L 4697 4666 
L 2919 1966 
L 2919 0 
L 1716 0 
L 1716 1966 
L -63 4666 
z
" transform="scale(0.015625)"/>
     </defs>
     <use xlink:href="#DejaVuSans-Bold-59"/>
    </g>
   </g>
   <g id="text_3">
    <!-- Z -->
    <g style="fill: #0000ff; opacity: 0.35" transform="translate(26.451303 45.688096) scale(0.16 -0.16)">
     <defs>
      <path id="DejaVuSans-Bold-5a" d="M 359 4666 
L 4281 4666 
L 4281 3938 
L 1778 909 
L 4353 909 
L 4353 0 
L 288 0 
L 288 728 
L 2791 3756 
L 359 3756 
L 359 4666 
z
" transform="scale(0.015625)"/>
     </defs>
     <use xlink:href="#DejaVuSans-Bold-5a"/>
    </g>
   </g>
   <g id="patch_4">
    <path d="M 34.569886 128.777636 
Q 33.529951 91.49007 32.583525 57.555302 
" clip-path="url(#p2ba014d686)" style="fill: none; opacity: 0.35; stroke: #0000ff; stroke-width: 3; stroke-linecap: round"/>
    <path d="M 28.808109 65.663707 
L 32.583525 57.555302 
L 36.805 65.440677 
" clip-path="url(#p2ba014d686)" style="fill: none; opacity: 0.35; stroke: #0000ff; stroke-width: 3; stroke-linecap: round"/>
   </g>
   <g id="Poly3DCollection_1">
    <path d="M 34.625658 130.777385 
L 75.556475 158.723566 
L 74.833852 87.65662 
L 32.728658 62.759153 
z
" clip-path="url(#p2ba014d686)" style="fill: #fff6b3; fill-opacity: 0.35"/>
   </g>
   <g id="patch_5">
    <path d="M 36.279998 131.906913 
Q 58.360949 146.983041 77.671871 160.167888 
" clip-path="url(#p2ba014d686)" style="fill: none; opacity: 0.35; stroke: #ff0000; stroke-width: 3; stroke-linecap: round"/>
    <path d="M 73.320454 152.353467 
L 77.671871 160.167888 
L 68.809484 158.960369 
" clip-path="url(#p2ba014d686)" style="fill: none; opacity: 0.35; stroke: #ff0000; stroke-width: 3; stroke-linecap: round"/>
   </g>
  </g>
 </g>
 <defs>
  <clipPath id="p2ba014d686">
   <rect x="0" y="0" width="192" height="192"/>
  </clipPath>
 </defs>
</svg>
